<?xml version="1.0" encoding="UTF-8"?>
<svg width="48px" height="36px" viewBox="0 0 48 36" version="1.1" xmlns="http://www.w3.org/2000/svg" xmlns:xlink="http://www.w3.org/1999/xlink">
    <!-- Generator: Sketch 43.2 (39069) - http://www.bohemiancoding.com/sketch -->
    <title>Shape</title>
    <desc>Created with Sketch.</desc>
    <defs></defs>
    <g id="Page-1" stroke="none" stroke-width="1" fill="none" fill-rule="evenodd">
        <g id="Sunrise" fill-rule="nonzero" fill="#000000">
            <path d="M12.688,9.859 L9.86,7.031 C9.079,6.251 7.813,6.251 7.032,7.031 C6.251,7.812 6.251,9.078 7.032,9.859 L9.86,12.687 C10.641,13.468 11.907,13.468 12.688,12.687 C13.469,11.906 13.469,10.641 12.688,9.859 Z M45.997,22 L41.998,22 C40.894,22 39.999,22.896 39.999,24 C39.999,25.104 40.894,26 41.998,26 L45.997,26 C47.102,26 47.997,25.104 47.997,24 C47.997,22.896 47.103,22 45.997,22 Z M6.003,22 L2.003,22 C0.899,22 0.003,22.896 0.003,24 C0.003,25.104 0.899,26 2.003,26 L6.003,26 C7.107,26 8.003,25.104 8.003,24 C8.003,22.896 7.106,22 6.003,22 Z M33.999,31.999 L14.001,31.999 C12.897,31.999 12.002,32.895 12.002,33.999 C12.002,35.103 12.898,35.998 14.001,35.998 L33.999,35.998 C35.103,35.998 35.999,35.103 35.999,33.999 C35.999,32.895 35.104,31.999 33.999,31.999 Z M40.969,7.031 C40.189,6.251 38.921,6.251 38.141,7.031 L35.313,9.859 C34.533,10.64 34.533,11.906 35.313,12.687 C36.094,13.468 37.361,13.468 38.141,12.687 L40.969,9.859 C41.749,9.078 41.749,7.812 40.969,7.031 Z M24.001,8.002 C25.105,8.002 26,7.106 26,6.002 L26,2.003 C26,0.899 25.104,0.003 24.001,0.003 C22.896,0.003 22.001,0.899 22.001,2.003 L22.001,6.002 C22.001,7.106 22.896,8.002 24.001,8.002 Z M24.001,12.002 C17.374,12.002 12.002,17.373 12.002,24 C12.002,25.404 12.256,26.747 12.699,27.999 L17.08,27.999 C16.397,26.822 16.001,25.459 16.001,24 C16.001,19.582 19.583,16.001 24.001,16.001 C28.418,16.001 31.999,19.582 31.999,24 C31.999,25.459 31.603,26.822 30.921,27.999 L35.302,27.999 C35.745,26.747 35.999,25.404 35.999,24 C35.999,17.373 30.627,12.002 24.001,12.002 Z M24.001,28.249 C24.553,28.249 25,27.802 25,27.249 L25,23.422 L27.536,25.957 C27.926,26.348 28.559,26.348 28.95,25.957 C29.34,25.566 29.34,24.934 28.95,24.543 L24.708,20.301 C24.317,19.91 23.684,19.91 23.294,20.301 L19.052,24.543 C18.661,24.934 18.661,25.566 19.052,25.957 C19.443,26.348 20.075,26.348 20.466,25.957 L23.001,23.422 L23.001,27.249 C23.001,27.802 23.448,28.249 24.001,28.249 Z" id="Shape"></path>
        </g>
    </g>
</svg>