<svg width="16" height="37" viewBox="0 0 16 37" xmlns="http://www.w3.org/2000/svg"><title>Shape</title><path d="M8 36.867c-4.418 0-8-3.582-8-8 0-2.025.76-3.87 2-5.28V6.872c0-3.312 2.686-6 6-6 3.312 0 6 2.688 6 6V23.59c1.24 1.41 1.998 3.254 1.998 5.28 0 4.417-3.58 8-7.998 8zm2-11.445V6.87c0-1.103-.896-2-2-2-1.105 0-2 .897-2 2v18.552c-1.19.693-2 1.97-2 3.445 0 2.21 1.79 4 4 4s4-1.79 4-4c0-1.476-.81-2.752-2-3.445zm-2 6.445c-1.656 0-3-1.344-3-3 0-1.305.838-2.402 2-2.816V6.87c0-.553.447-1 1-1 .553 0 1 .447 1 1V26.05c1.162.415 2 1.513 2 2.817 0 1.656-1.344 3-3 3z" fill-rule="nonzero" fill="#000"/></svg>