<svg width="26" height="26" viewBox="0 0 26 26" xmlns="http://www.w3.org/2000/svg"><title>Shape</title><path d="M13.014 11.002c-1.107.008-2.008-.884-2.016-1.987-.01-1.107.88-2.007 1.987-2.016.166-.002.324.022.478.06 1.156-.906 2.667-2.086 2.84-2.21.297-.21.64-.235.882.008.24.248.215.623-.01.886-.077.09-1.295 1.622-2.23 2.798.035.143.057.29.058.444.01 1.102-.88 2.008-1.99 2.016zM0 21c0-.553.448-1 1-1h9v-2.525C6.51 16.235 4 12.91 4 9c0-4.962 4.038-9 9-9 4.963 0 9 4.038 9 9 0 3.91-2.51 7.236-6 8.475V20h9c.553 0 1 .447 1 1 0 .553-.447 1-1 1H1c-.552 0-1-.447-1-1zm13-6c3.31 0 6-2.69 6-6s-2.69-6-6-6-6 2.69-6 6 2.69 6 6 6zm12 9H1c-.552 0-1 .447-1 1 0 .553.448 1 1 1h24c.553 0 1-.447 1-1 0-.553-.447-1-1-1z" fill-rule="nonzero" fill="#030104"/></svg>