<svg width="16" height="37" viewBox="0 0 16 37" xmlns="http://www.w3.org/2000/svg"><title>Shape</title><path d="M8 36.865c-4.418 0-7.998-3.58-7.998-7.998 0-2.025.758-3.87 2-5.28V6.87c0-3.313 2.686-6 5.998-6 3.314 0 6 2.687 6 6v16.718c1.24 1.41 2 3.254 2 5.28 0 4.417-3.582 7.997-8 7.997zm2-11.443V6.87c0-1.104-.895-2-2-2-1.104 0-2 .896-2 2v18.552c-1.19.693-1.998 1.97-1.998 3.445 0 2.21 1.79 3.998 3.998 3.998 2.21 0 4-1.79 4-3.998 0-1.476-.81-2.752-2-3.445zm-2 6.445c-1.656 0-2.998-1.344-2.998-3 0-1.305.836-2.402 1.998-2.816v-5.183h2v5.184c1.162.415 2 1.513 2 2.817 0 1.656-1.344 3-3 3z" fill-rule="nonzero" fill="#000"/></svg>