<?xml version="1.0" encoding="UTF-8"?>
<svg width="28px" height="28px" viewBox="0 0 28 28" version="1.1" xmlns="http://www.w3.org/2000/svg" xmlns:xlink="http://www.w3.org/1999/xlink">
    <!-- Generator: Sketch 43.2 (39069) - http://www.bohemiancoding.com/sketch -->
    <title>Shape</title>
    <desc>Created with Sketch.</desc>
    <defs></defs>
    <g id="Page-1" stroke="none" stroke-width="1" fill="none" fill-rule="evenodd">
        <g id="Compass-North" fill-rule="nonzero" fill="#000000">
            <path d="M14,0.002 C6.269,0.002 0.001,6.27 0.001,14 C0.001,21.731 6.269,27.999 14,27.999 C21.73,27.999 27.998,21.731 27.998,14 C27.998,6.27 21.73,0.002 14,0.002 Z M14,23.999 C8.478,23.999 4.001,19.522 4.001,14 C4.001,8.479 8.478,4.002 14,4.002 C19.521,4.002 23.999,8.479 23.999,14 C23.999,19.522 19.521,23.999 14,23.999 Z M10,14 C10,16.209 11.791,18 14,18 C16.209,18 17.999,16.209 17.999,14 C17.999,11.791 14,6.001 14,6.001 C14,6.001 10,11.791 10,14 Z M15,14 C15,14.553 14.552,15 14,15 C13.447,15 13,14.553 13,14 C13,13.448 13.447,13 14,13 C14.552,13 15,13.448 15,14 Z" id="Shape"></path>
        </g>
    </g>
</svg>