<?xml version="1.0" encoding="UTF-8"?>
<svg width="48px" height="36px" viewBox="0 0 48 36" version="1.1" xmlns="http://www.w3.org/2000/svg" xmlns:xlink="http://www.w3.org/1999/xlink">
    <!-- Generator: Sketch 43.2 (39069) - http://www.bohemiancoding.com/sketch -->
    <title>Shape</title>
    <desc>Created with Sketch.</desc>
    <defs></defs>
    <g id="Page-1" stroke="none" stroke-width="1" fill="none" fill-rule="evenodd">
        <g id="Sunset" fill-rule="nonzero" fill="#000000">
            <path d="M45.998,26 L41.998,26 C40.894,26 39.999,25.104 39.999,24 C39.999,22.896 40.894,22 41.998,22 L45.998,22 C47.102,22 47.997,22.896 47.997,24 C47.997,25.104 47.103,26 45.998,26 Z M38.142,12.688 C37.361,13.469 36.094,13.469 35.314,12.688 C34.533,11.907 34.533,10.641 35.314,9.86 L38.142,7.032 C38.922,6.252 40.189,6.252 40.969,7.032 C41.75,7.813 41.75,9.079 40.969,9.86 L38.142,12.688 Z M35.302,27.999 L30.921,27.999 C31.603,26.822 31.999,25.459 31.999,24 C31.999,19.582 28.418,16.001 24.001,16.001 C19.583,16.001 16.001,19.582 16.001,24 C16.001,25.459 16.398,26.822 17.081,27.999 L12.699,27.999 C12.256,26.747 12.002,25.404 12.002,24 C12.002,17.373 17.374,12.002 24.001,12.002 C30.627,12.002 35.999,17.373 35.999,24 C35.999,25.404 35.745,26.747 35.302,27.999 Z M24.001,8.002 C22.896,8.002 22.001,7.106 22.001,6.002 L22.001,2.003 C22.001,0.899 22.896,0.003 24.001,0.003 C25.105,0.003 26.001,0.899 26.001,2.003 L26.001,6.002 C26.001,7.106 25.104,8.002 24.001,8.002 Z M9.86,12.688 L7.032,9.86 C6.251,9.079 6.251,7.813 7.032,7.032 C7.813,6.252 9.079,6.252 9.86,7.032 L12.688,9.86 C13.469,10.641 13.469,11.907 12.688,12.688 C11.907,13.469 10.642,13.469 9.86,12.688 Z M8.003,24 C8.003,25.104 7.107,26 6.003,26 L2.003,26 C0.899,26 0.003,25.104 0.003,24 C0.003,22.896 0.899,22 2.003,22 L6.003,22 C7.107,22 8.003,22.896 8.003,24 Z M24.001,20 C24.553,20 25.001,20.448 25.001,21 L25.001,24.828 L27.536,22.293 C27.927,21.902 28.559,21.902 28.95,22.293 C29.341,22.684 29.341,23.316 28.95,23.707 L24.708,27.949 C24.317,28.34 23.685,28.34 23.294,27.949 L19.052,23.707 C18.661,23.316 18.661,22.684 19.052,22.293 C19.443,21.902 20.075,21.902 20.466,22.293 L23.001,24.828 L23.001,21 C23.001,20.448 23.448,20 24.001,20 Z M14.002,31.999 L33.999,31.999 C35.103,31.999 35.999,32.895 35.999,33.999 C35.999,35.103 35.103,35.998 33.999,35.998 L14.002,35.998 C12.898,35.998 12.002,35.103 12.002,33.999 C12.002,32.895 12.897,31.999 14.002,31.999 Z" id="Shape"></path>
        </g>
    </g>
</svg>