<?xml version="1.0" encoding="UTF-8"?>
<svg width="16px" height="37px" viewBox="0 0 16 37" version="1.1" xmlns="http://www.w3.org/2000/svg" xmlns:xlink="http://www.w3.org/1999/xlink">
    <!-- Generator: Sketch 43.2 (39069) - http://www.bohemiancoding.com/sketch -->
    <title>Shape</title>
    <desc>Created with Sketch.</desc>
    <defs></defs>
    <g id="Page-1" stroke="none" stroke-width="1" fill="none" fill-rule="evenodd">
        <g id="Thermometer-25" fill-rule="nonzero" fill="#000000">
            <path d="M8,36.865 C3.582,36.865 0.002,33.285 0.002,28.867 C0.002,26.842 0.76,24.998 2.002,23.588 L2.002,6.87 C2.002,3.557 4.688,0.871 8,0.871 C11.314,0.871 14,3.557 14,6.87 L14,23.588 C15.24,24.998 16,26.842 16,28.867 C16,33.285 12.418,36.865 8,36.865 Z M10,25.422 L10,21.129 L10,10.869 L10,6.87 C10,5.766 9.105,4.87 8,4.87 C6.896,4.87 6,5.766 6,6.87 L6,10.869 L6,21.129 L6,25.422 C4.811,26.115 4.002,27.391 4.002,28.867 C4.002,31.076 5.791,32.865 8,32.865 C10.209,32.865 12,31.076 12,28.867 C12,27.391 11.191,26.115 10,25.422 Z M8,31.867 C6.344,31.867 5.002,30.523 5.002,28.867 C5.002,27.562 5.838,26.465 7,26.051 L7,20.867 L9,20.867 L9,26.051 C10.162,26.465 11,27.563 11,28.867 C11,30.523 9.656,31.867 8,31.867 Z" id="Shape"></path>
        </g>
    </g>
</svg>